<svg width="40" height="40" viewBox="0 0 40 40" fill="none" xmlns="http://www.w3.org/2000/svg">
<path fill-rule="evenodd" clip-rule="evenodd" d="M13.271 19.6971C13.271 23.4961 16.024 26.0848 19.1198 26.6208C19.528 26.6915 19.8015 27.0797 19.7309 27.4878C19.6602 27.8959 19.272 28.1695 18.8639 28.0989C15.1447 27.4549 11.771 24.3187 11.771 19.6971C11.771 17.7244 12.669 16.1769 13.7102 15.0053C14.3669 14.2664 15.1074 13.6496 15.7408 13.1585L13.975 13.1585C13.5608 13.1585 13.225 12.8227 13.225 12.4085C13.225 11.9943 13.5608 11.6585 13.975 11.6585L17.768 11.6585C18.1822 11.6585 18.518 11.9943 18.518 12.4085L18.518 16.2016C18.518 16.6158 18.1822 16.9516 17.768 16.9516C17.3538 16.9516 17.018 16.6158 17.018 16.2016L17.018 14.0712C16.3309 14.591 15.5316 15.2139 14.8314 16.0018C13.9369 17.0083 13.271 18.2157 13.271 19.6971ZM27.1328 20.2111C27.1328 16.4522 24.4382 13.8788 21.3822 13.3051C20.9751 13.2287 20.7071 12.8367 20.7835 12.4296C20.8599 12.0225 21.2519 11.7544 21.659 11.8309C25.3304 12.5201 28.6328 15.639 28.6328 20.2111C28.6328 22.1838 27.7348 23.7313 26.6937 24.9029C26.0368 25.642 25.2961 26.2589 24.6626 26.75L26.4288 26.75C26.843 26.75 27.1788 27.0858 27.1788 27.5C27.1788 27.9142 26.843 28.25 26.4288 28.25L22.6358 28.25C22.2216 28.25 21.8858 27.9142 21.8858 27.5L21.8858 23.707C21.8858 23.2928 22.2216 22.957 22.6358 22.957C23.05 22.957 23.3858 23.2928 23.3858 23.707L23.3858 25.8371C24.073 25.3172 24.8722 24.6944 25.5724 23.9065C26.467 22.8999 27.1328 21.6925 27.1328 20.2111Z" fill="#00DAC0"/>
</svg>
